<svg width="300" height="300" viewBox="0 0 300 300" fill="none" xmlns="http://www.w3.org/2000/svg">
<circle cx="150" cy="150" r="144" stroke="#C6C6C6" stroke-width="12"/>
<mask id="path-2-inside-1_1_2037" fill="white">
<path d="M294.113 150C297.364 150 300.012 147.363 299.884 144.114C299.19 126.425 295.368 108.982 288.582 92.5975C281.044 74.3986 269.995 57.8628 256.066 43.934C242.137 30.0052 225.601 18.9563 207.403 11.4181C191.018 4.63156 173.575 0.810164 155.886 0.115521C152.637 -0.0120637 150 2.63587 150 5.88739C150 9.13891 152.637 11.7617 155.886 11.9001C172.028 12.5881 187.941 16.1018 202.896 22.2965C219.667 29.243 234.905 39.4246 247.74 52.26C260.575 65.0954 270.757 80.3332 277.703 97.1035C283.898 112.059 287.412 127.972 288.1 144.114C288.238 147.363 290.861 150 294.113 150Z"/>
</mask>
<path d="M294.113 150C297.364 150 300.012 147.363 299.884 144.114C299.19 126.425 295.368 108.982 288.582 92.5975C281.044 74.3986 269.995 57.8628 256.066 43.934C242.137 30.0052 225.601 18.9563 207.403 11.4181C191.018 4.63156 173.575 0.810164 155.886 0.115521C152.637 -0.0120637 150 2.63587 150 5.88739C150 9.13891 152.637 11.7617 155.886 11.9001C172.028 12.5881 187.941 16.1018 202.896 22.2965C219.667 29.243 234.905 39.4246 247.74 52.26C260.575 65.0954 270.757 80.3332 277.703 97.1035C283.898 112.059 287.412 127.972 288.1 144.114C288.238 147.363 290.861 150 294.113 150Z" stroke="#01FFF0" stroke-width="24" mask="url(#path-2-inside-1_1_2037)"/>
<path d="M116.796 127.1C120.476 127.7 123.296 129.08 125.256 131.24C127.216 133.36 128.196 136 128.196 139.16C128.196 141.6 127.556 143.86 126.276 145.94C124.996 147.98 123.036 149.62 120.396 150.86C117.796 152.1 114.596 152.72 110.796 152.72C107.836 152.72 104.916 152.34 102.036 151.58C99.1959 150.78 96.7759 149.66 94.7759 148.22L98.5559 140.78C100.156 141.98 101.996 142.92 104.076 143.6C106.196 144.24 108.356 144.56 110.556 144.56C112.996 144.56 114.916 144.1 116.316 143.18C117.716 142.22 118.416 140.88 118.416 139.16C118.416 135.72 115.796 134 110.556 134H106.116V127.58L114.756 117.8H96.8759V110H126.276V116.3L116.796 127.1ZM146.498 125.78C152.418 125.78 156.778 126.96 159.578 129.32C162.418 131.68 163.838 134.84 163.838 138.8C163.838 141.36 163.198 143.7 161.918 145.82C160.638 147.9 158.678 149.58 156.038 150.86C153.438 152.1 150.218 152.72 146.378 152.72C143.418 152.72 140.498 152.34 137.618 151.58C134.778 150.78 132.358 149.66 130.358 148.22L134.198 140.78C135.798 141.98 137.638 142.92 139.718 143.6C141.798 144.24 143.938 144.56 146.138 144.56C148.578 144.56 150.498 144.08 151.898 143.12C153.298 142.16 153.998 140.82 153.998 139.1C153.998 137.3 153.258 135.94 151.778 135.02C150.338 134.1 147.818 133.64 144.218 133.64H133.478L135.638 110H161.258V117.8H143.738L143.078 125.78H146.498ZM185.781 152.72C182.301 152.72 179.201 151.86 176.481 150.14C173.761 148.42 171.621 145.94 170.061 142.7C168.541 139.42 167.781 135.52 167.781 131C167.781 126.48 168.541 122.6 170.061 119.36C171.621 116.08 173.761 113.58 176.481 111.86C179.201 110.14 182.301 109.28 185.781 109.28C189.261 109.28 192.361 110.14 195.081 111.86C197.801 113.58 199.921 116.08 201.441 119.36C203.001 122.6 203.781 126.48 203.781 131C203.781 135.52 203.001 139.42 201.441 142.7C199.921 145.94 197.801 148.42 195.081 150.14C192.361 151.86 189.261 152.72 185.781 152.72ZM185.781 144.5C188.341 144.5 190.341 143.4 191.781 141.2C193.261 139 194.001 135.6 194.001 131C194.001 126.4 193.261 123 191.781 120.8C190.341 118.6 188.341 117.5 185.781 117.5C183.261 117.5 181.261 118.6 179.781 120.8C178.341 123 177.621 126.4 177.621 131C177.621 135.6 178.341 139 179.781 141.2C181.261 143.4 183.261 144.5 185.781 144.5Z" fill="#01FFF0"/>
<path d="M100.836 180.968C102.479 180.968 103.919 181.309 105.156 181.992C106.394 182.653 107.343 183.592 108.004 184.808C108.687 186.024 109.028 187.432 109.028 189.032C109.028 190.675 108.623 192.136 107.812 193.416C107.023 194.675 105.914 195.656 104.484 196.36C103.055 197.043 101.434 197.384 99.6204 197.384C96.6124 197.384 94.2444 196.424 92.5164 194.504C90.8097 192.563 89.9564 189.725 89.9564 185.992C89.9564 182.536 90.703 179.784 92.1964 177.736C93.711 175.667 96.0257 174.312 99.1404 173.672L107.332 172.04L108.004 176.328L100.772 177.768C98.8097 178.152 97.3484 178.792 96.3884 179.688C95.4497 180.584 94.895 181.853 94.7244 183.496C95.471 182.685 96.367 182.067 97.4124 181.64C98.4577 181.192 99.599 180.968 100.836 180.968ZM99.6524 193.512C100.932 193.512 101.956 193.096 102.724 192.264C103.514 191.432 103.908 190.376 103.908 189.096C103.908 187.795 103.514 186.76 102.724 185.992C101.956 185.224 100.932 184.84 99.6524 184.84C98.351 184.84 97.3057 185.224 96.5164 185.992C95.727 186.76 95.3324 187.795 95.3324 189.096C95.3324 190.397 95.7377 191.464 96.5484 192.296C97.359 193.107 98.3937 193.512 99.6524 193.512ZM118.822 179.528C121.489 179.528 123.537 180.168 124.966 181.448C126.396 182.707 127.11 184.616 127.11 187.176V197H122.438V194.856C121.5 196.456 119.75 197.256 117.19 197.256C115.868 197.256 114.716 197.032 113.734 196.584C112.774 196.136 112.038 195.517 111.526 194.728C111.014 193.939 110.758 193.043 110.758 192.04C110.758 190.44 111.356 189.181 112.55 188.264C113.766 187.347 115.633 186.888 118.15 186.888H122.118C122.118 185.8 121.788 184.968 121.126 184.392C120.465 183.795 119.473 183.496 118.15 183.496C117.233 183.496 116.326 183.645 115.43 183.944C114.556 184.221 113.809 184.605 113.19 185.096L111.398 181.608C112.337 180.947 113.457 180.435 114.758 180.072C116.081 179.709 117.436 179.528 118.822 179.528ZM118.438 193.896C119.292 193.896 120.049 193.704 120.71 193.32C121.372 192.915 121.841 192.328 122.118 191.56V189.8H118.694C116.646 189.8 115.622 190.472 115.622 191.816C115.622 192.456 115.868 192.968 116.358 193.352C116.87 193.715 117.564 193.896 118.438 193.896ZM147.959 179.784V197H142.967V183.88H137.527L137.367 186.92C137.282 189.181 137.068 191.059 136.727 192.552C136.386 194.045 135.831 195.219 135.063 196.072C134.295 196.925 133.228 197.352 131.863 197.352C131.138 197.352 130.274 197.224 129.271 196.968L129.527 192.872C129.868 192.915 130.114 192.936 130.263 192.936C131.01 192.936 131.564 192.669 131.927 192.136C132.311 191.581 132.567 190.888 132.695 190.056C132.823 189.203 132.919 188.083 132.983 186.696L133.239 179.784H147.959ZM169.271 179.784V197H164.279V183.88H158.839L158.679 186.92C158.594 189.181 158.381 191.059 158.039 192.552C157.698 194.045 157.143 195.219 156.375 196.072C155.607 196.925 154.541 197.352 153.175 197.352C152.45 197.352 151.586 197.224 150.583 196.968L150.839 192.872C151.181 192.915 151.426 192.936 151.575 192.936C152.322 192.936 152.877 192.669 153.239 192.136C153.623 191.581 153.879 190.888 154.007 190.056C154.135 189.203 154.231 188.083 154.295 186.696L154.551 179.784H169.271ZM182.136 197.256C180.323 197.256 178.691 196.883 177.24 196.136C175.811 195.368 174.691 194.312 173.88 192.968C173.069 191.624 172.664 190.099 172.664 188.392C172.664 186.685 173.069 185.16 173.88 183.816C174.691 182.472 175.811 181.427 177.24 180.68C178.691 179.912 180.323 179.528 182.136 179.528C183.949 179.528 185.571 179.912 187 180.68C188.429 181.427 189.549 182.472 190.36 183.816C191.171 185.16 191.576 186.685 191.576 188.392C191.576 190.099 191.171 191.624 190.36 192.968C189.549 194.312 188.429 195.368 187 196.136C185.571 196.883 183.949 197.256 182.136 197.256ZM182.136 193.16C183.416 193.16 184.461 192.733 185.272 191.88C186.104 191.005 186.52 189.843 186.52 188.392C186.52 186.941 186.104 185.789 185.272 184.936C184.461 184.061 183.416 183.624 182.136 183.624C180.856 183.624 179.8 184.061 178.968 184.936C178.136 185.789 177.72 186.941 177.72 188.392C177.72 189.843 178.136 191.005 178.968 191.88C179.8 192.733 180.856 193.16 182.136 193.16ZM208.161 188.008C210.188 188.691 211.201 190.056 211.201 192.104C211.201 193.661 210.615 194.867 209.441 195.72C208.268 196.573 206.519 197 204.193 197H195.009V179.784H203.809C205.964 179.784 207.649 180.179 208.865 180.968C210.081 181.736 210.689 182.824 210.689 184.232C210.689 185.085 210.465 185.843 210.017 186.504C209.591 187.144 208.972 187.645 208.161 188.008ZM199.585 186.856H203.361C205.111 186.856 205.985 186.237 205.985 185C205.985 183.784 205.111 183.176 203.361 183.176H199.585V186.856ZM203.777 193.608C205.612 193.608 206.529 192.979 206.529 191.72C206.529 191.059 206.316 190.579 205.889 190.28C205.463 189.96 204.791 189.8 203.873 189.8H199.585V193.608H203.777Z" fill="white"/>
</svg>
