<svg width="151" height="62" viewBox="0 0 151 62" fill="none" xmlns="http://www.w3.org/2000/svg">
<path d="M39.348 59.036C38.748 59.036 38.192 58.928 37.68 58.712C37.168 58.496 36.72 58.196 36.336 57.812C35.952 57.42 35.652 56.968 35.436 56.456C35.228 55.944 35.124 55.392 35.124 54.8C35.124 54.208 35.232 53.656 35.448 53.144C35.664 52.632 35.964 52.184 36.348 51.8C36.732 51.408 37.18 51.104 37.692 50.888C38.212 50.672 38.772 50.564 39.372 50.564C39.972 50.564 40.528 50.672 41.04 50.888C41.56 51.096 42.008 51.392 42.384 51.776C42.768 52.16 43.064 52.608 43.272 53.12C43.488 53.624 43.596 54.176 43.596 54.776C43.596 55.376 43.488 55.936 43.272 56.456C43.056 56.968 42.752 57.42 42.36 57.812C41.976 58.196 41.528 58.496 41.016 58.712C40.504 58.928 39.948 59.036 39.348 59.036ZM39.336 58.592C39.88 58.592 40.38 58.496 40.836 58.304C41.292 58.104 41.692 57.832 42.036 57.488C42.388 57.144 42.66 56.74 42.852 56.276C43.044 55.804 43.14 55.304 43.14 54.776C43.14 54.24 43.044 53.744 42.852 53.288C42.668 52.832 42.404 52.432 42.06 52.088C41.724 51.744 41.324 51.48 40.86 51.296C40.404 51.104 39.908 51.008 39.372 51.008C38.828 51.008 38.324 51.104 37.86 51.296C37.396 51.488 36.992 51.76 36.648 52.112C36.312 52.456 36.048 52.856 35.856 53.312C35.664 53.768 35.568 54.264 35.568 54.8C35.568 55.328 35.664 55.824 35.856 56.288C36.048 56.744 36.312 57.148 36.648 57.5C36.992 57.844 37.392 58.112 37.848 58.304C38.312 58.496 38.808 58.592 39.336 58.592ZM39.456 57.296C38.976 57.296 38.548 57.192 38.172 56.984C37.796 56.768 37.5 56.472 37.284 56.096C37.068 55.72 36.96 55.288 36.96 54.8C36.96 54.312 37.068 53.88 37.284 53.504C37.5 53.128 37.796 52.836 38.172 52.628C38.548 52.412 38.976 52.304 39.456 52.304C39.864 52.304 40.232 52.388 40.56 52.556C40.896 52.716 41.164 52.94 41.364 53.228L40.848 53.612C40.68 53.38 40.476 53.208 40.236 53.096C39.996 52.984 39.732 52.928 39.444 52.928C39.1 52.928 38.792 53.008 38.52 53.168C38.256 53.32 38.044 53.536 37.884 53.816C37.724 54.096 37.644 54.424 37.644 54.8C37.644 55.176 37.724 55.504 37.884 55.784C38.044 56.064 38.256 56.284 38.52 56.444C38.792 56.596 39.1 56.672 39.444 56.672C39.732 56.672 39.996 56.616 40.236 56.504C40.476 56.392 40.68 56.22 40.848 55.988L41.364 56.36C41.164 56.656 40.896 56.888 40.56 57.056C40.232 57.216 39.864 57.296 39.456 57.296ZM47.8118 59V58.388L51.3038 54.968C51.6238 54.656 51.8638 54.384 52.0238 54.152C52.1838 53.912 52.2918 53.688 52.3478 53.48C52.4038 53.272 52.4318 53.076 52.4318 52.892C52.4318 52.404 52.2638 52.02 51.9278 51.74C51.5998 51.46 51.1118 51.32 50.4638 51.32C49.9678 51.32 49.5278 51.396 49.1438 51.548C48.7678 51.7 48.4438 51.936 48.1718 52.256L47.5598 51.728C47.8878 51.344 48.3078 51.048 48.8198 50.84C49.3318 50.632 49.9038 50.528 50.5358 50.528C51.1038 50.528 51.5958 50.62 52.0118 50.804C52.4278 50.98 52.7478 51.24 52.9718 51.584C53.2038 51.928 53.3198 52.332 53.3198 52.796C53.3198 53.068 53.2798 53.336 53.1998 53.6C53.1278 53.864 52.9918 54.144 52.7918 54.44C52.5998 54.728 52.3158 55.056 51.9398 55.424L48.7358 58.568L48.4958 58.232H53.7038V59H47.8118ZM58.1126 59.072C57.4646 59.072 56.8886 58.904 56.3846 58.568C55.8806 58.224 55.4846 57.736 55.1966 57.104C54.9086 56.464 54.7646 55.696 54.7646 54.8C54.7646 53.904 54.9086 53.14 55.1966 52.508C55.4846 51.868 55.8806 51.38 56.3846 51.044C56.8886 50.7 57.4646 50.528 58.1126 50.528C58.7606 50.528 59.3366 50.7 59.8406 51.044C60.3446 51.38 60.7406 51.868 61.0286 52.508C61.3246 53.14 61.4726 53.904 61.4726 54.8C61.4726 55.696 61.3246 56.464 61.0286 57.104C60.7406 57.736 60.3446 58.224 59.8406 58.568C59.3366 58.904 58.7606 59.072 58.1126 59.072ZM58.1126 58.28C58.6086 58.28 59.0406 58.148 59.4086 57.884C59.7766 57.612 60.0646 57.22 60.2726 56.708C60.4806 56.188 60.5846 55.552 60.5846 54.8C60.5846 54.048 60.4806 53.416 60.2726 52.904C60.0646 52.384 59.7766 51.992 59.4086 51.728C59.0406 51.456 58.6086 51.32 58.1126 51.32C57.6326 51.32 57.2046 51.456 56.8286 51.728C56.4526 51.992 56.1606 52.384 55.9526 52.904C55.7446 53.416 55.6406 54.048 55.6406 54.8C55.6406 55.552 55.7446 56.188 55.9526 56.708C56.1606 57.22 56.4526 57.612 56.8286 57.884C57.2046 58.148 57.6326 58.28 58.1126 58.28ZM62.5539 59V58.388L66.0459 54.968C66.3659 54.656 66.6059 54.384 66.7659 54.152C66.9259 53.912 67.0339 53.688 67.0899 53.48C67.1459 53.272 67.1739 53.076 67.1739 52.892C67.1739 52.404 67.0059 52.02 66.6699 51.74C66.3419 51.46 65.8539 51.32 65.2059 51.32C64.7099 51.32 64.2699 51.396 63.8859 51.548C63.5099 51.7 63.1859 51.936 62.9139 52.256L62.3019 51.728C62.6299 51.344 63.0499 51.048 63.5619 50.84C64.0739 50.632 64.6459 50.528 65.2779 50.528C65.8459 50.528 66.3379 50.62 66.7539 50.804C67.1699 50.98 67.4899 51.24 67.7139 51.584C67.9459 51.928 68.0619 52.332 68.0619 52.796C68.0619 53.068 68.0219 53.336 67.9419 53.6C67.8699 53.864 67.7339 54.144 67.5339 54.44C67.3419 54.728 67.0579 55.056 66.6819 55.424L63.4779 58.568L63.2379 58.232H68.4459V59H62.5539ZM72.0383 59.072C71.4303 59.072 70.8543 58.976 70.3103 58.784C69.7743 58.584 69.3423 58.32 69.0143 57.992L69.4343 57.308C69.7063 57.588 70.0703 57.82 70.5263 58.004C70.9903 58.188 71.4943 58.28 72.0383 58.28C72.7343 58.28 73.2663 58.128 73.6343 57.824C74.0103 57.52 74.1983 57.112 74.1983 56.6C74.1983 56.088 74.0143 55.68 73.6463 55.376C73.2863 55.072 72.7143 54.92 71.9303 54.92H71.3303V54.284L73.9223 51.032L74.0423 51.368H69.3623V50.6H74.7623V51.212L72.1703 54.464L71.7503 54.188H72.0742C73.0823 54.188 73.8343 54.412 74.3303 54.86C74.8343 55.308 75.0863 55.884 75.0863 56.588C75.0863 57.06 74.9743 57.484 74.7503 57.86C74.5263 58.236 74.1863 58.532 73.7303 58.748C73.2823 58.964 72.7183 59.072 72.0383 59.072ZM76.3517 60.752L76.8797 58.532L76.9757 59.048C76.7917 59.048 76.6357 58.988 76.5077 58.868C76.3877 58.748 76.3277 58.592 76.3277 58.4C76.3277 58.208 76.3877 58.052 76.5077 57.932C76.6357 57.812 76.7877 57.752 76.9637 57.752C77.1477 57.752 77.2957 57.816 77.4077 57.944C77.5277 58.072 77.5877 58.224 77.5877 58.4C77.5877 58.464 77.5837 58.528 77.5757 58.592C77.5677 58.656 77.5517 58.728 77.5277 58.808C77.5037 58.888 77.4717 58.984 77.4317 59.096L76.9277 60.752H76.3517ZM84.3633 59V51.368H81.4113V50.6H88.2033V51.368H85.2513V59H84.3633ZM89.4419 59V52.7H90.2939V59H89.4419ZM89.8739 51.308C89.6979 51.308 89.5499 51.248 89.4299 51.128C89.3099 51.008 89.2499 50.864 89.2499 50.696C89.2499 50.528 89.3099 50.388 89.4299 50.276C89.5499 50.156 89.6979 50.096 89.8739 50.096C90.0499 50.096 90.1979 50.152 90.3179 50.264C90.4379 50.376 90.4979 50.516 90.4979 50.684C90.4979 50.86 90.4379 51.008 90.3179 51.128C90.2059 51.248 90.0579 51.308 89.8739 51.308ZM100.537 52.64C101.049 52.64 101.493 52.74 101.869 52.94C102.253 53.132 102.549 53.428 102.757 53.828C102.973 54.228 103.081 54.732 103.081 55.34V59H102.229V55.424C102.229 54.76 102.069 54.26 101.749 53.924C101.437 53.58 100.993 53.408 100.417 53.408C99.9846 53.408 99.6086 53.5 99.2886 53.684C98.9766 53.86 98.7326 54.12 98.5566 54.464C98.3886 54.8 98.3046 55.208 98.3046 55.688V59H97.4526V55.424C97.4526 54.76 97.2926 54.26 96.9726 53.924C96.6526 53.58 96.2046 53.408 95.6286 53.408C95.2046 53.408 94.8326 53.5 94.5126 53.684C94.1926 53.86 93.9446 54.12 93.7686 54.464C93.6006 54.8 93.5166 55.208 93.5166 55.688V59H92.6646V52.7H93.4806V54.404L93.3486 54.104C93.5406 53.648 93.8486 53.292 94.2726 53.036C94.7046 52.772 95.2126 52.64 95.7966 52.64C96.4126 52.64 96.9366 52.796 97.3686 53.108C97.8006 53.412 98.0806 53.872 98.2086 54.488L97.8726 54.356C98.0566 53.844 98.3806 53.432 98.8446 53.12C99.3166 52.8 99.8806 52.64 100.537 52.64ZM105.535 59V51.908C105.535 51.348 105.699 50.896 106.027 50.552C106.355 50.208 106.827 50.036 107.443 50.036C107.683 50.036 107.915 50.068 108.139 50.132C108.363 50.196 108.551 50.296 108.703 50.432L108.415 51.068C108.295 50.964 108.155 50.888 107.995 50.84C107.835 50.784 107.663 50.756 107.479 50.756C107.119 50.756 106.843 50.856 106.651 51.056C106.459 51.256 106.363 51.552 106.363 51.944V52.904L106.387 53.3V59H105.535ZM104.407 53.408V52.7H108.307V53.408H104.407ZM111.92 59.06C111.312 59.06 110.764 58.924 110.276 58.652C109.796 58.372 109.416 57.992 109.136 57.512C108.856 57.024 108.716 56.468 108.716 55.844C108.716 55.212 108.856 54.656 109.136 54.176C109.416 53.696 109.796 53.32 110.276 53.048C110.756 52.776 111.304 52.64 111.92 52.64C112.544 52.64 113.096 52.776 113.576 53.048C114.064 53.32 114.444 53.696 114.716 54.176C114.996 54.656 115.136 55.212 115.136 55.844C115.136 56.468 114.996 57.024 114.716 57.512C114.444 57.992 114.064 58.372 113.576 58.652C113.088 58.924 112.536 59.06 111.92 59.06ZM111.92 58.304C112.376 58.304 112.78 58.204 113.132 58.004C113.484 57.796 113.76 57.508 113.96 57.14C114.168 56.764 114.272 56.332 114.272 55.844C114.272 55.348 114.168 54.916 113.96 54.548C113.76 54.18 113.484 53.896 113.132 53.696C112.78 53.488 112.38 53.384 111.932 53.384C111.484 53.384 111.084 53.488 110.732 53.696C110.38 53.896 110.1 54.18 109.892 54.548C109.684 54.916 109.58 55.348 109.58 55.844C109.58 56.332 109.684 56.764 109.892 57.14C110.1 57.508 110.38 57.796 110.732 58.004C111.084 58.204 111.48 58.304 111.92 58.304Z" fill="#C6C6C6"/>
<path fill-rule="evenodd" clip-rule="evenodd" d="M18.6702 0.101982C14.5847 0.604115 10.0883 2.70394 6.25384 5.94498C5.47781 6.58406 3.85729 8.15893 3.85729 8.25023C3.85729 8.29588 4.63332 9.11755 5.59193 10.0762L7.32658 11.8336L6.5962 12.6553C3.90294 15.6909 2.077 18.7722 0.98144 22.0361C0.296714 24.0902 0 25.7792 0 27.6736C0 29.3855 0.228241 30.7777 0.753198 32.1244L0.958617 32.6721L6.04842 37.762C10.2937 42.0073 11.2523 42.9202 11.7773 43.2626C12.8729 43.993 14.151 44.4951 15.5661 44.7918C16.5019 44.9972 18.6702 45.0657 19.6973 44.9288C23.76 44.4266 27.9597 42.5094 31.6344 39.4509C32.593 38.6521 34.2135 37.1229 34.2135 37.0316C34.2135 36.9859 33.4147 36.1643 32.456 35.1828L30.6986 33.4025L31.2464 32.8319C32.593 31.4168 34.2363 29.1572 35.195 27.3769C36.5644 24.8891 37.4545 22.1958 37.7513 19.7308C37.8654 18.6581 37.7969 16.3757 37.6143 15.5083C37.2948 14.0476 36.7926 12.8607 36.0394 11.7195C35.6514 11.1261 34.8754 10.3272 30.5845 6.01346L25.5631 0.992129L25.0382 0.786709C24.3306 0.489994 22.8699 0.147631 21.9797 0.0563345C21.0896 -0.0349624 19.6973 -0.0121388 18.6702 0.101982ZM22.984 1.44861C23.3492 1.53991 23.9426 1.67686 24.2621 1.79098C24.8556 1.99639 24.8784 1.99639 25.8142 2.93219C26.6359 3.75386 26.75 3.86798 26.5446 3.84516C25.449 3.63974 23.6915 3.59409 22.3221 3.77668C17.9398 4.32446 13.4206 6.53841 9.26663 10.1903C8.8558 10.5555 8.49061 10.875 8.42214 10.9207C8.35367 10.9663 7.98848 10.6696 6.91574 9.59686L5.50064 8.18176L6.41361 7.38291C10.2253 4.05057 14.4249 1.95074 18.5333 1.35731C19.6288 1.19754 22.071 1.26602 22.984 1.44861ZM28.9639 8.70671C30.9725 9.00343 32.7299 9.87075 34.0309 11.1717C35.3091 12.4499 36.1307 14.0932 36.5188 16.1474C36.6785 17.0604 36.6785 19.1146 36.5188 20.1873C35.9938 23.4968 34.4646 26.8976 32.0909 30.0017C31.5431 30.7321 30.2421 32.2613 30.0367 32.4211C29.9226 32.5124 29.7856 32.3983 28.5987 31.2114C27.8684 30.481 27.2749 29.8648 27.2749 29.8419C27.2749 29.8191 27.4804 29.5681 27.7314 29.2942C31.8626 24.7293 33.8027 19.0233 32.4332 15.4855C31.8854 14.1161 30.7442 13.089 29.2607 12.6325C28.5075 12.4042 27.1836 12.2901 26.2022 12.4042C24.6958 12.5412 22.847 13.1346 21.0668 14.0019C19.2865 14.8693 17.6659 15.9648 16.0911 17.3799L15.3835 17.9962L14.0369 16.6495L12.6903 15.3029L13.2609 14.778C16.753 11.5141 21.3863 9.18602 25.3577 8.66107C26.1566 8.59259 28.2107 8.59259 28.9639 8.70671ZM10.0883 16.5811C9.58617 17.1517 8.94709 17.9505 8.62755 18.3614C4.83873 23.4055 3.10409 28.8833 3.81164 33.6079L3.85729 33.9047L2.9215 32.9917C2.03135 32.1244 1.98571 32.0559 1.80311 31.5081C0.0228244 26.3955 2.2596 19.3428 7.53199 13.4313L8.14825 12.7466L9.56335 14.1617L10.9785 15.5768L10.0883 16.5811ZM27.914 13.6596L28.0966 13.7052L28.051 14.6638C28.0053 15.805 27.8455 16.7408 27.6173 17.5397C26.8869 19.9362 25.5403 22.3328 23.5774 24.5924L22.8242 25.4597L21.3863 24.0218L19.9484 22.5838L20.6103 21.8535C22.0254 20.3014 23.3264 18.4983 24.1252 16.9691C24.5589 16.1474 25.1295 14.7551 25.2892 14.1161C25.3805 13.728 25.3805 13.728 25.7229 13.6824C25.9055 13.6596 26.1109 13.6367 26.1794 13.6139C26.362 13.6139 27.7543 13.6139 27.914 13.6596ZM23.8285 14.6638C23.509 15.554 22.8014 16.9234 22.1167 17.9505C21.3635 19.0917 20.8385 19.7765 19.7886 20.9633L19.0582 21.8078L17.6203 20.3699L16.1824 18.932L16.6617 18.4983C18.1453 17.1745 19.8799 15.9876 21.4776 15.166C22.3449 14.7323 23.76 14.1617 23.9654 14.1389C23.9883 14.1389 23.9426 14.3671 23.8285 14.6638ZM16.7073 21.1916C17.9398 22.4241 18.0083 22.5154 17.917 22.6523C17.8485 22.7208 17.5518 23.0631 17.2323 23.4283C15.9541 24.8891 14.7673 26.6694 13.9684 28.3127C13.3978 29.4768 13.0555 30.4354 12.7131 31.7364C12.2794 33.4482 12.2794 35.3426 12.7587 36.6664C13.6489 39.177 15.9998 40.3639 19.2865 39.9759C22.459 39.5879 26.1109 37.7619 29.2378 35.0002L29.8997 34.4068L31.2464 35.7534L32.593 37.1L32.0224 37.625C29.1009 40.3411 25.1979 42.555 21.82 43.3767C20.4505 43.7191 19.4919 43.8332 18.1909 43.8332C16.4563 43.8332 15.1781 43.605 13.8315 43.0115C12.0968 42.2583 10.4991 40.7747 9.67747 39.1314C8.65038 37.1 8.35367 34.5894 8.81015 31.8733C9.44923 28.0845 11.5719 24.0218 14.6988 20.5297C15.0183 20.1645 15.3151 19.8678 15.3379 19.8678C15.3607 19.8678 15.977 20.4612 16.7073 21.1916ZM21.1809 26.7835C19.3093 28.541 16.9127 30.1158 14.927 30.9147C14.5162 31.0745 14.151 31.2114 14.1282 31.2114C14.1054 31.2114 14.1967 30.9603 14.3108 30.6408C15.1781 28.2442 16.6845 25.8021 18.4876 23.862L18.9213 23.4055L20.3592 24.8206L21.7971 26.2357L21.1809 26.7835ZM24.0567 28.5638L25.449 29.9561L25.0153 30.3669C22.7329 32.5124 19.218 34.4524 16.7302 34.9774C16.1139 35.1143 14.7444 35.2513 14.0825 35.2513H13.6489V34.2014C13.6489 33.6308 13.6717 33.0145 13.6945 32.8776L13.7402 32.6037L14.6303 32.307C16.8899 31.5766 19.7658 29.7735 21.8884 27.7649C22.2308 27.4454 22.5503 27.1715 22.596 27.1715C22.6416 27.1715 23.3035 27.7878 24.0567 28.5638Z" fill="#EFDA1C"/>
<path d="M58.6107 36V17.2326H51.2095V12.8712H71.3646V17.2326H63.9634V36H58.6107ZM73.8812 36V18.2238H79.0356V36H73.8812ZM76.4584 15.7457C75.5112 15.7457 74.7402 15.4704 74.1455 14.9197C73.5507 14.369 73.2534 13.6862 73.2534 12.8712C73.2534 12.0561 73.5507 11.3733 74.1455 10.8226C74.7402 10.2719 75.5112 9.99658 76.4584 9.99658C77.4055 9.99658 78.1765 10.2609 78.7713 10.7896C79.366 11.2962 79.6634 11.957 79.6634 12.772C79.6634 13.6311 79.366 14.347 78.7713 14.9197C78.1985 15.4704 77.4276 15.7457 76.4584 15.7457ZM106.585 17.9595C107.994 17.9595 109.239 18.2459 110.318 18.8186C111.42 19.3693 112.279 20.2283 112.896 21.3958C113.534 22.5412 113.854 24.0171 113.854 25.8233V36H108.699V26.6163C108.699 25.1845 108.402 24.1272 107.807 23.4443C107.212 22.7615 106.375 22.4201 105.296 22.4201C104.547 22.4201 103.875 22.5963 103.281 22.9487C102.686 23.2791 102.223 23.7858 101.893 24.4686C101.562 25.1515 101.397 26.0216 101.397 27.0789V36H96.2428V26.6163C96.2428 25.1845 95.9454 24.1272 95.3507 23.4443C94.778 22.7615 93.952 22.4201 92.8726 22.4201C92.1237 22.4201 91.4518 22.5963 90.8571 22.9487C90.2624 23.2791 89.7998 23.7858 89.4694 24.4686C89.139 25.1515 88.9738 26.0216 88.9738 27.0789V36H83.8193V18.2238H88.7425V23.0809L87.8173 21.6601C88.4341 20.4486 89.3042 19.5345 90.4276 18.9177C91.573 18.2789 92.8726 17.9595 94.3264 17.9595C95.9565 17.9595 97.3772 18.378 98.5887 19.2151C99.8223 20.0301 100.637 21.2857 101.034 22.9818L99.2165 22.4862C99.8113 21.0984 100.758 19.997 102.058 19.182C103.38 18.367 104.889 17.9595 106.585 17.9595ZM119.102 36V17.8273C119.102 15.8228 119.696 14.2259 120.886 13.0364C122.075 11.8249 123.771 11.2191 125.974 11.2191C126.723 11.2191 127.439 11.2962 128.122 11.4504C128.827 11.6046 129.422 11.8469 129.906 12.1773L128.551 15.911C128.265 15.7127 127.946 15.5585 127.593 15.4484C127.241 15.3382 126.866 15.2832 126.47 15.2832C125.721 15.2832 125.137 15.5034 124.719 15.944C124.322 16.3625 124.124 17.0013 124.124 17.8604V19.5124L124.256 21.7262V36H119.102ZM116.359 22.5853V18.6203H128.684V22.5853H116.359ZM139.484 36.2643C137.59 36.2643 135.905 35.8678 134.429 35.0748C132.975 34.2819 131.819 33.2025 130.96 31.8368C130.123 30.4491 129.704 28.8741 129.704 27.1119C129.704 25.3277 130.123 23.7527 130.96 22.387C131.819 20.9993 132.975 19.92 134.429 19.149C135.905 18.356 137.59 17.9595 139.484 17.9595C141.357 17.9595 143.031 18.356 144.506 19.149C145.982 19.92 147.139 20.9883 147.976 22.354C148.813 23.7197 149.231 25.3057 149.231 27.1119C149.231 28.8741 148.813 30.4491 147.976 31.8368C147.139 33.2025 145.982 34.2819 144.506 35.0748C143.031 35.8678 141.357 36.2643 139.484 36.2643ZM139.484 32.0351C140.343 32.0351 141.114 31.8368 141.797 31.4403C142.48 31.0438 143.02 30.4821 143.416 29.7552C143.813 29.0063 144.011 28.1252 144.011 27.1119C144.011 26.0766 143.813 25.1955 143.416 24.4686C143.02 23.7417 142.48 23.18 141.797 22.7835C141.114 22.387 140.343 22.1888 139.484 22.1888C138.625 22.1888 137.854 22.387 137.171 22.7835C136.488 23.18 135.938 23.7417 135.519 24.4686C135.123 25.1955 134.924 26.0766 134.924 27.1119C134.924 28.1252 135.123 29.0063 135.519 29.7552C135.938 30.4821 136.488 31.0438 137.171 31.4403C137.854 31.8368 138.625 32.0351 139.484 32.0351Z" fill="#EFDA1C"/>
</svg>
