<svg width="150" height="45" viewBox="0 0 150 45" fill="none" xmlns="http://www.w3.org/2000/svg">
<path fill-rule="evenodd" clip-rule="evenodd" d="M19.2655 0.101982C15.1591 0.604115 10.6398 2.70394 6.78575 5.94498C6.00577 6.58406 4.37698 8.15893 4.37698 8.25023C4.37698 8.29588 5.15696 9.11755 6.12047 10.0762L7.86397 11.8336L7.12986 12.6553C4.42286 15.6909 2.5876 18.7722 1.48645 22.0361C0.798228 24.0902 0.5 25.7792 0.5 27.6736C0.5 29.3855 0.729406 30.7777 1.25704 32.1244L1.46351 32.6721L6.57928 37.762C10.8463 42.0073 11.8098 42.9202 12.3374 43.2626C13.4386 43.993 14.7232 44.4951 16.1456 44.7918C17.0861 44.9972 19.2655 45.0657 20.2978 44.9288C24.3813 44.4266 28.6024 42.5094 32.2958 39.4509C33.2593 38.6521 34.8881 37.1229 34.8881 37.0316C34.8881 36.9859 34.0852 36.1643 33.1217 35.1828L31.3552 33.4025L31.9058 32.8319C33.2593 31.4168 34.9111 29.1572 35.8746 27.3769C37.251 24.8891 38.1457 22.1958 38.4439 19.7308C38.5586 18.6581 38.4898 16.3757 38.3063 15.5083C37.9851 14.0476 37.4804 12.8607 36.7234 11.7195C36.3334 11.1261 35.5534 10.3272 31.2405 6.01346L26.1936 0.992129L25.666 0.786709C24.9548 0.489994 23.4866 0.147631 22.5919 0.0563345C21.6972 -0.0349624 20.2978 -0.0121388 19.2655 0.101982ZM23.6013 1.44861C23.9683 1.53991 24.5648 1.67686 24.886 1.79098C25.4824 1.99639 25.5054 1.99639 26.4459 2.93219C27.2718 3.75386 27.3865 3.86798 27.18 3.84516C26.0789 3.63974 24.3124 3.59409 22.936 3.77668C18.5314 4.32446 13.9891 6.53841 9.81392 10.1903C9.40099 10.5555 9.03394 10.875 8.96512 10.9207C8.8963 10.9663 8.52925 10.6696 7.45103 9.59686L6.02871 8.18176L6.94634 7.38291C10.7774 4.05057 14.9985 1.95074 19.1279 1.35731C20.229 1.19754 22.6837 1.26602 23.6013 1.44861ZM29.6118 8.70671C31.6305 9.00343 33.397 9.87075 34.7046 11.1717C35.9893 12.4499 36.8151 14.0932 37.2051 16.1474C37.3657 17.0604 37.3657 19.1146 37.2051 20.1873C36.6775 23.4968 35.1405 26.8976 32.7546 30.0017C32.2041 30.7321 30.8964 32.2613 30.69 32.4211C30.5753 32.5124 30.4376 32.3983 29.2447 31.2114C28.5106 30.481 27.9141 29.8648 27.9141 29.8419C27.9141 29.8191 28.1206 29.5681 28.373 29.2942C32.5252 24.7293 34.4752 19.0233 33.0987 15.4855C32.5482 14.1161 31.4011 13.089 29.91 12.6325C29.1529 12.4042 27.8224 12.2901 26.8359 12.4042C25.3218 12.5412 23.4636 13.1346 21.6743 14.0019C19.8849 14.8693 18.2561 15.9648 16.6732 17.3799L15.962 17.9962L14.6085 16.6495L13.255 15.3029L13.8285 14.778C17.3385 11.5141 21.9954 9.18602 25.9871 8.66106C26.79 8.59259 28.8547 8.59259 29.6118 8.70671ZM10.6398 16.5811C10.1351 17.1517 9.49275 17.9505 9.17158 18.3614C5.36343 23.4055 3.61993 28.8833 4.3311 33.6079L4.37698 33.9047L3.43641 32.9917C2.54172 32.1244 2.49584 32.0559 2.31232 31.5081C0.522941 26.3955 2.77113 19.3428 8.07043 13.4313L8.68983 12.7466L10.1122 14.1617L11.5345 15.5768L10.6398 16.5811ZM28.5565 13.6596L28.74 13.7052L28.6941 14.6638C28.6482 15.805 28.4877 16.7408 28.2582 17.5397C27.5241 19.9362 26.1706 22.3328 24.1977 24.5924L23.4407 25.4597L21.9954 24.0218L20.5502 22.5838L21.2155 21.8535C22.6378 20.3014 23.9454 18.4983 24.7483 16.9691C25.1842 16.1474 25.7577 14.7551 25.9183 14.1161C26.0101 13.728 26.0101 13.728 26.3542 13.6824C26.5377 13.6596 26.7442 13.6367 26.813 13.6139C26.9965 13.6139 28.3959 13.6139 28.5565 13.6596ZM24.4501 14.6638C24.1289 15.554 23.4178 16.9234 22.7295 17.9505C21.9725 19.0917 21.4449 19.7765 20.3896 20.9633L19.6555 21.8078L18.2102 20.3699L16.765 18.932L17.2467 18.4983C18.7379 17.1745 20.4814 15.9876 22.0872 15.166C22.9589 14.7323 24.3813 14.1617 24.5877 14.1389C24.6107 14.1389 24.5648 14.3671 24.4501 14.6638ZM17.2926 21.1916C18.5314 22.4241 18.6002 22.5154 18.5084 22.6523C18.4396 22.7208 18.1414 23.0631 17.8202 23.4283C16.5355 24.8891 15.3426 26.6694 14.5397 28.3127C13.9662 29.4768 13.6221 30.4354 13.278 31.7364C12.8421 33.4482 12.8421 35.3426 13.3239 36.6664C14.2185 39.177 16.5814 40.3639 19.8849 39.9759C23.0736 39.5879 26.7442 37.7619 29.887 35.0002L30.5523 34.4068L31.9058 35.7534L33.2593 37.1L32.6858 37.625C29.7494 40.3411 25.8265 42.555 22.4313 43.3767C21.0549 43.7191 20.0914 43.8332 18.7837 43.8332C17.0402 43.8332 15.7556 43.605 14.4021 43.0115C12.6586 42.2583 11.0527 40.7747 10.2269 39.1314C9.19453 37.1 8.8963 34.5894 9.35511 31.8733C9.99745 28.0845 12.1309 24.0218 15.2738 20.5297C15.595 20.1645 15.8932 19.8678 15.9162 19.8678C15.9391 19.8678 16.5585 20.4612 17.2926 21.1916ZM21.789 26.7835C19.9078 28.541 17.4991 30.1158 15.5032 30.9147C15.0903 31.0745 14.7232 31.2114 14.7003 31.2114C14.6774 31.2114 14.7691 30.9603 14.8838 30.6408C15.7556 28.2442 17.2697 25.8021 19.082 23.862L19.5178 23.4055L20.9631 24.8206L22.4084 26.2357L21.789 26.7835ZM24.6795 28.5638L26.0789 29.9561L25.643 30.3669C23.3489 32.5124 19.8161 34.4524 17.3155 34.9774C16.6961 35.1143 15.3197 35.2513 14.6544 35.2513H14.2185V34.2014C14.2185 33.6308 14.2415 33.0145 14.2644 32.8776L14.3103 32.6037L15.205 32.307C17.4761 31.5766 20.3666 29.7735 22.5001 27.7649C22.8442 27.4454 23.1654 27.1715 23.2113 27.1715C23.2572 27.1715 23.9225 27.7878 24.6795 28.5638Z" fill="#EFDA1C"/>
<path d="M57.4232 36V17.2326H50.022V12.8712H70.1771V17.2326H62.7759V36H57.4232ZM72.6937 36V18.2238H77.8481V36H72.6937ZM75.2709 15.7457C74.3237 15.7457 73.5527 15.4704 72.958 14.9197C72.3632 14.369 72.0659 13.6862 72.0659 12.8712C72.0659 12.0561 72.3632 11.3733 72.958 10.8226C73.5527 10.2719 74.3237 9.99658 75.2709 9.99658C76.218 9.99658 76.989 10.2609 77.5838 10.7896C78.1785 11.2962 78.4759 11.957 78.4759 12.772C78.4759 13.6311 78.1785 14.347 77.5838 14.9197C77.011 15.4704 76.2401 15.7457 75.2709 15.7457ZM105.397 17.9595C106.807 17.9595 108.052 18.2459 109.131 18.8186C110.232 19.3693 111.091 20.2283 111.708 21.3958C112.347 22.5412 112.666 24.0171 112.666 25.8233V36H107.512V26.6163C107.512 25.1845 107.214 24.1272 106.62 23.4443C106.025 22.7615 105.188 22.4201 104.109 22.4201C103.36 22.4201 102.688 22.5963 102.093 22.9487C101.498 23.2791 101.036 23.7858 100.705 24.4686C100.375 25.1515 100.21 26.0216 100.21 27.0789V36H95.0553V26.6163C95.0553 25.1845 94.7579 24.1272 94.1632 23.4443C93.5905 22.7615 92.7645 22.4201 91.6851 22.4201C90.9362 22.4201 90.2643 22.5963 89.6696 22.9487C89.0749 23.2791 88.6123 23.7858 88.2819 24.4686C87.9515 25.1515 87.7863 26.0216 87.7863 27.0789V36H82.6318V18.2238H87.555V23.0809L86.6298 21.6601C87.2466 20.4486 88.1167 19.5345 89.2401 18.9177C90.3855 18.2789 91.6851 17.9595 93.1389 17.9595C94.769 17.9595 96.1897 18.378 97.4012 19.2151C98.6348 20.0301 99.4498 21.2857 99.8463 22.9818L98.029 22.4862C98.6238 21.0984 99.5709 19.997 100.871 19.182C102.192 18.367 103.701 17.9595 105.397 17.9595ZM117.914 36V17.8273C117.914 15.8228 118.509 14.2259 119.698 13.0364C120.888 11.8249 122.584 11.2191 124.787 11.2191C125.536 11.2191 126.252 11.2962 126.934 11.4504C127.639 11.6046 128.234 11.8469 128.719 12.1773L127.364 15.911C127.078 15.7127 126.758 15.5585 126.406 15.4484C126.053 15.3382 125.679 15.2832 125.282 15.2832C124.533 15.2832 123.95 15.5034 123.531 15.944C123.135 16.3625 122.936 17.0013 122.936 17.8604V19.5124L123.069 21.7262V36H117.914ZM115.172 22.5853V18.6203H127.496V22.5853H115.172ZM138.297 36.2643C136.402 36.2643 134.717 35.8678 133.241 35.0748C131.788 34.2819 130.631 33.2025 129.772 31.8368C128.935 30.4491 128.516 28.8741 128.516 27.1119C128.516 25.3277 128.935 23.7527 129.772 22.387C130.631 20.9993 131.788 19.92 133.241 19.149C134.717 18.356 136.402 17.9595 138.297 17.9595C140.169 17.9595 141.843 18.356 143.319 19.149C144.795 19.92 145.951 20.9883 146.788 22.354C147.625 23.7197 148.044 25.3057 148.044 27.1119C148.044 28.8741 147.625 30.4491 146.788 31.8368C145.951 33.2025 144.795 34.2819 143.319 35.0748C141.843 35.8678 140.169 36.2643 138.297 36.2643ZM138.297 32.0351C139.156 32.0351 139.927 31.8368 140.61 31.4403C141.292 31.0438 141.832 30.4821 142.229 29.7552C142.625 29.0063 142.823 28.1252 142.823 27.1119C142.823 26.0766 142.625 25.1955 142.229 24.4686C141.832 23.7417 141.292 23.18 140.61 22.7835C139.927 22.387 139.156 22.1888 138.297 22.1888C137.438 22.1888 136.667 22.387 135.984 22.7835C135.301 23.18 134.75 23.7417 134.332 24.4686C133.935 25.1955 133.737 26.0766 133.737 27.1119C133.737 28.1252 133.935 29.0063 134.332 29.7552C134.75 30.4821 135.301 31.0438 135.984 31.4403C136.667 31.8368 137.438 32.0351 138.297 32.0351Z" fill="#EFDA1C"/>
</svg>
