<?xml version="1.0" encoding="utf-8"?><svg xmlns="http://www.w3.org/2000/svg" xmlns:xlink="http://www.w3.org/1999/xlink"><symbol viewBox="0 0 60 60" id="arrow" xmlns="http://www.w3.org/2000/svg"><path d="M44 22L31.6385 39.6593C30.8423 40.7968 29.1577 40.7968 28.3615 39.6593L16 22"/></symbol><symbol viewBox="0 0 148 148" id="check" xmlns="http://www.w3.org/2000/svg"><path d="M136 32L51.4375 116L13 77.8182"/></symbol><symbol viewBox="0 0 22 21" id="mail" xmlns="http://www.w3.org/2000/svg"><path d="M4.1875 3.5H18.1875C19.15 3.5 19.9375 4.2875 19.9375 5.25V15.75C19.9375 16.7125 19.15 17.5 18.1875 17.5H4.1875C3.225 17.5 2.4375 16.7125 2.4375 15.75V5.25C2.4375 4.2875 3.225 3.5 4.1875 3.5Z"/><path d="M19.9375 5.25L11.1875 11.375L2.4375 5.25"/></symbol><symbol viewBox="0 0 22 21" id="mess" xmlns="http://www.w3.org/2000/svg"><path d="M19.0625 10.0625C19.0655 11.2174 18.7957 12.3567 18.275 13.3875C17.6576 14.6228 16.7085 15.6618 15.534 16.3881C14.3595 17.1145 13.006 17.4995 11.625 17.5C10.4701 17.503 9.33085 17.2332 8.3 16.7125L3.3125 18.375L4.975 13.3875C4.45431 12.3567 4.18449 11.2174 4.1875 10.0625C4.18803 8.68156 4.57304 7.32802 5.29938 6.15351C6.02572 4.97899 7.06472 4.0299 8.3 3.41253C9.33085 2.89184 10.4701 2.62201 11.625 2.62502H12.0625C13.8863 2.72564 15.6089 3.49544 16.9005 4.78703C18.1921 6.07861 18.9619 7.80122 19.0625 9.62503V10.0625Z"/></symbol><symbol viewBox="0 0 22 21" id="phone" xmlns="http://www.w3.org/2000/svg"><g clip-path="url(#eclip0_20_912)"><path d="M13.856 4.375C14.7107 4.54174 15.4961 4.95973 16.1118 5.57544C16.7275 6.19116 17.1455 6.97661 17.3123 7.83125M13.856 0.875C15.6316 1.07226 17.2874 1.8674 18.5515 3.12988C19.8155 4.39236 20.6128 6.04713 20.8123 7.8225M19.9373 14.805V17.43C19.9382 17.6737 19.8883 17.9149 19.7907 18.1382C19.6931 18.3615 19.5499 18.5619 19.3703 18.7266C19.1908 18.8914 18.9788 19.0168 18.7479 19.0949C18.5171 19.1729 18.2725 19.2019 18.0298 19.18C15.3372 18.8874 12.7509 17.9674 10.4785 16.4938C8.36436 15.1503 6.57193 13.3579 5.22851 11.2438C3.74974 8.96105 2.82947 6.36212 2.54226 3.6575C2.52039 3.41553 2.54915 3.17167 2.6267 2.94142C2.70424 2.71118 2.82888 2.4996 2.99268 2.32017C3.15647 2.14073 3.35584 1.99737 3.57808 1.89921C3.80031 1.80104 4.04056 1.75023 4.28351 1.75H6.90851C7.33315 1.74582 7.74483 1.89619 8.0668 2.17309C8.38877 2.44999 8.59908 2.83452 8.65851 3.255C8.7693 4.09506 8.97478 4.91989 9.27101 5.71375C9.38873 6.02693 9.41421 6.3673 9.34443 6.69452C9.27464 7.02174 9.11251 7.3221 8.87726 7.56L7.76601 8.67125C9.01162 10.8619 10.8254 12.6756 13.016 13.9212L14.1273 12.81C14.3652 12.5747 14.6655 12.4126 14.9927 12.3428C15.32 12.273 15.6603 12.2985 15.9735 12.4162C16.7674 12.7125 17.5922 12.918 18.4323 13.0288C18.8573 13.0887 19.2455 13.3028 19.523 13.6303C19.8005 13.9578 19.9479 14.3759 19.9373 14.805Z"/></g><defs><clipPath id="eclip0_20_912"><rect width="21" height="21" transform="translate(0.6875)"/></clipPath></defs></symbol><symbol viewBox="0 0 24 24" id="signin" xmlns="http://www.w3.org/2000/svg"><path d="M15 3H19C19.5304 3 20.0391 3.21071 20.4142 3.58579C20.7893 3.96086 21 4.46957 21 5V19C21 19.5304 20.7893 20.0391 20.4142 20.4142C20.0391 20.7893 19.5304 21 19 21H15"/><path d="M10 17L15 12L10 7"/><path d="M15 12H3"/></symbol><symbol viewBox="0 0 22 21" id="slash" xmlns="http://www.w3.org/2000/svg"><path d="M11.1875 19.25C16.02 19.25 19.9375 15.3325 19.9375 10.5C19.9375 5.66751 16.02 1.75 11.1875 1.75C6.35501 1.75 2.4375 5.66751 2.4375 10.5C2.4375 15.3325 6.35501 19.25 11.1875 19.25Z"/><path d="M5 4.31348L17.3725 16.686"/></symbol><symbol viewBox="0 0 20 19" id="star" xmlns="http://www.w3.org/2000/svg"><path d="M9.04894 0.927052C9.3483 0.00574112 10.6517 0.00573993 10.9511 0.927051L12.4697 5.60081C12.6035 6.01284 12.9875 6.2918 13.4207 6.2918H18.335C19.3037 6.2918 19.7065 7.53141 18.9228 8.10081L14.947 10.9894C14.5966 11.244 14.4499 11.6954 14.5838 12.1074L16.1024 16.7812C16.4017 17.7025 15.3472 18.4686 14.5635 17.8992L10.5878 15.0106C10.2373 14.756 9.7627 14.756 9.41221 15.0106L5.43648 17.8992C4.65276 18.4686 3.59828 17.7025 3.89763 16.7812L5.41623 12.1074C5.55011 11.6954 5.40345 11.244 5.05296 10.9894L1.07722 8.10081C0.293507 7.53141 0.696283 6.2918 1.66501 6.2918H6.57929C7.01252 6.2918 7.39647 6.01284 7.53035 5.60081L9.04894 0.927052Z"/></symbol></svg>