<svg width="360" height="318" viewBox="0 0 360 318" fill="none" xmlns="http://www.w3.org/2000/svg">
<path d="M126.283 86.5443C126.426 91.2231 125.877 94.7083 124.635 97H108.379V121.134C107.52 121.898 106.541 122.543 105.443 123.068C102.912 124.261 99.8568 124.954 96.276 125.145V97H54.3099C52.3047 94.4219 51.1827 91.796 50.944 89.1224C58.0577 82.1519 66.0069 71.5052 74.7917 57.1823C84.0061 41.4271 91.263 27.8203 96.5625 16.362C101.289 18.3672 105.562 21.1124 109.382 24.5977C107.854 27.2713 105.92 30.4462 103.581 34.1224C96.5148 44.8168 91.1675 52.6944 87.5391 57.7552C75.2691 74.4175 66.8663 85.1359 62.3307 89.9102L96.276 88.9076V60.405C98.7109 58.7339 102.745 57.0868 108.379 55.4635V88.6211C115.206 88.1914 121.174 87.4991 126.283 86.5443ZM140.319 58.901C140.319 53.2674 141.274 47.9679 143.184 43.0026C145.141 38.0373 147.839 33.7405 151.276 30.112C158.724 22.4254 168.01 18.582 179.134 18.582C190.927 18.582 200.404 22.4254 207.565 30.112C214.44 37.5599 217.878 47.2517 217.878 59.1875C217.878 70.2161 214.297 79.6215 207.135 87.4036C199.735 95.52 190.401 99.5781 179.134 99.5781C167.437 99.5781 157.96 95.5916 150.703 87.6185C143.78 80.0273 140.319 70.4549 140.319 58.901ZM151.777 58.6862C151.777 63.0308 152.47 67.1128 153.854 70.9323C155.239 74.7517 157.196 78.1415 159.727 81.1016C165.408 87.7378 172.402 91.056 180.71 91.056C188.492 91.056 194.794 87.8333 199.616 81.388C204.151 75.3247 206.419 67.9245 206.419 59.1875C206.419 49.7344 203.77 42.0477 198.47 36.1276C193.075 30.0642 186.128 27.0326 177.63 27.0326C169.848 27.0326 163.57 30.0642 158.796 36.1276C154.117 42.0477 151.777 49.5673 151.777 58.6862ZM309.329 86.5443C309.473 91.2231 308.924 94.7083 307.682 97H291.426V121.134C290.566 121.898 289.588 122.543 288.49 123.068C285.959 124.261 282.904 124.954 279.323 125.145V97H237.357C235.352 94.4219 234.23 91.796 233.991 89.1224C241.105 82.1519 249.054 71.5052 257.839 57.1823C267.053 41.4271 274.31 27.8203 279.609 16.362C284.336 18.3672 288.609 21.1124 292.428 24.5977C290.901 27.2713 288.967 30.4462 286.628 34.1224C279.562 44.8168 274.214 52.6944 270.586 57.7552C258.316 74.4175 249.913 85.1359 245.378 89.9102L279.323 88.9076V60.405C281.758 58.7339 285.792 57.0868 291.426 55.4635V88.6211C298.253 88.1914 304.221 87.4991 309.329 86.5443Z" fill="#01FFF0"/>
<circle cx="172.306" cy="58.0801" r="2.93333" fill="#01FFF0"/>
<circle cx="186.386" cy="58.0801" r="2.93333" fill="#01FFF0"/>
<g clip-path="url(#clip0_66_3717)">
<path fill-rule="evenodd" clip-rule="evenodd" d="M195.819 139.051L195.819 155.497C195.819 163.96 188.958 170.82 180.495 170.82C172.032 170.82 165.171 163.96 165.171 155.497L165.171 139.051L163.304 139.051C161.652 139.051 160.314 137.713 160.314 136.061C160.314 134.41 161.652 133.071 163.304 133.071L169.283 133.071L169.283 119.99C169.283 118.339 170.622 117 172.273 117C173.924 117 175.263 118.339 175.263 119.99L175.263 133.071L185.728 133.071L185.728 119.99C185.728 118.339 187.067 117 188.718 117C190.37 117 191.708 118.339 191.708 119.99L191.708 133.071L198.063 133.071C199.714 133.071 201.053 134.41 201.053 136.061C201.053 137.713 199.714 139.051 198.063 139.051L195.819 139.051Z" fill="#01FFF0"/>
<path d="M180.741 162.183C180.741 182.572 172.335 191.504 146.912 191.504C85.6243 191.504 9.91619 95.4804 -31.5472 121.987C-100.354 165.975 -34.6688 270.941 51.0005 294.5C91.0005 305.5 180.741 312 236.5 253.047C273.543 213.882 284.774 137.154 360.683 137.154C417.05 137.154 427.156 215.375 402.006 253.047" stroke="#01FFF0" stroke-width="5.23254" stroke-linecap="round"/>
</g>
<defs>
<clipPath id="clip0_66_3717">
<rect width="470" height="201" fill="white" transform="translate(-55 117)"/>
</clipPath>
</defs>
</svg>
