<svg width="1588" height="678" viewBox="0 0 1588 678" fill="none" xmlns="http://www.w3.org/2000/svg">
<g clip-path="url(#clip0_64_3714)">
<mask id="path-1-outside-1_64_3714" maskUnits="userSpaceOnUse" x="347.516" y="37" width="531" height="226" fill="black">
<rect fill="white" x="347.516" y="37" width="531" height="226"/>
<path d="M502.775 182.613C503.068 192.184 501.945 199.312 499.406 204H466.154V253.365C464.396 254.928 462.395 256.246 460.148 257.32C454.973 259.762 448.723 261.178 441.398 261.568V204H355.559C351.457 198.727 349.162 193.355 348.674 187.887C363.225 173.629 379.484 151.852 397.453 122.555C416.301 90.3281 431.145 62.4961 441.984 39.0586C451.652 43.1602 460.393 48.7754 468.205 55.9043C465.08 61.373 461.125 67.8672 456.34 75.3867C441.887 97.2617 430.949 113.375 423.527 123.727C398.43 157.809 381.242 179.732 371.965 189.498L441.398 187.447V129.146C446.379 125.729 454.631 122.359 466.154 119.039V186.861C480.119 185.982 492.326 184.566 502.775 182.613ZM531.486 126.07C531.486 114.547 533.439 103.707 537.346 93.5508C541.35 83.3945 546.867 74.6055 553.898 67.1836C569.133 51.4609 588.127 43.5996 610.881 43.5996C635.002 43.5996 654.387 51.4609 669.035 67.1836C683.098 82.418 690.129 102.242 690.129 126.656C690.129 149.215 682.805 168.453 668.156 184.371C653.02 200.973 633.928 209.273 610.881 209.273C586.955 209.273 567.57 201.119 552.727 184.811C538.566 169.283 531.486 149.703 531.486 126.07ZM554.924 125.631C554.924 134.518 556.34 142.867 559.172 150.68C562.004 158.492 566.008 165.426 571.184 171.48C582.805 185.055 597.111 191.842 614.104 191.842C630.021 191.842 642.912 185.25 652.775 172.066C662.053 159.664 666.691 144.527 666.691 126.656C666.691 107.32 661.271 91.5977 650.432 79.4883C639.396 67.0859 625.188 60.8848 607.805 60.8848C591.887 60.8848 579.045 67.0859 569.279 79.4883C559.709 91.5977 554.924 106.979 554.924 125.631ZM877.189 182.613C877.482 192.184 876.359 199.312 873.82 204H840.568V253.365C838.811 254.928 836.809 256.246 834.562 257.32C829.387 259.762 823.137 261.178 815.812 261.568V204H729.973C725.871 198.727 723.576 193.355 723.088 187.887C737.639 173.629 753.898 151.852 771.867 122.555C790.715 90.3281 805.559 62.4961 816.398 39.0586C826.066 43.1602 834.807 48.7754 842.619 55.9043C839.494 61.373 835.539 67.8672 830.754 75.3867C816.301 97.2617 805.363 113.375 797.941 123.727C772.844 157.809 755.656 179.732 746.379 189.498L815.812 187.447V129.146C820.793 125.729 829.045 122.359 840.568 119.039V186.861C854.533 185.982 866.74 184.566 877.189 182.613Z"/>
</mask>
<path d="M502.775 182.613C503.068 192.184 501.945 199.312 499.406 204H466.154V253.365C464.396 254.928 462.395 256.246 460.148 257.32C454.973 259.762 448.723 261.178 441.398 261.568V204H355.559C351.457 198.727 349.162 193.355 348.674 187.887C363.225 173.629 379.484 151.852 397.453 122.555C416.301 90.3281 431.145 62.4961 441.984 39.0586C451.652 43.1602 460.393 48.7754 468.205 55.9043C465.08 61.373 461.125 67.8672 456.34 75.3867C441.887 97.2617 430.949 113.375 423.527 123.727C398.43 157.809 381.242 179.732 371.965 189.498L441.398 187.447V129.146C446.379 125.729 454.631 122.359 466.154 119.039V186.861C480.119 185.982 492.326 184.566 502.775 182.613ZM531.486 126.07C531.486 114.547 533.439 103.707 537.346 93.5508C541.35 83.3945 546.867 74.6055 553.898 67.1836C569.133 51.4609 588.127 43.5996 610.881 43.5996C635.002 43.5996 654.387 51.4609 669.035 67.1836C683.098 82.418 690.129 102.242 690.129 126.656C690.129 149.215 682.805 168.453 668.156 184.371C653.02 200.973 633.928 209.273 610.881 209.273C586.955 209.273 567.57 201.119 552.727 184.811C538.566 169.283 531.486 149.703 531.486 126.07ZM554.924 125.631C554.924 134.518 556.34 142.867 559.172 150.68C562.004 158.492 566.008 165.426 571.184 171.48C582.805 185.055 597.111 191.842 614.104 191.842C630.021 191.842 642.912 185.25 652.775 172.066C662.053 159.664 666.691 144.527 666.691 126.656C666.691 107.32 661.271 91.5977 650.432 79.4883C639.396 67.0859 625.188 60.8848 607.805 60.8848C591.887 60.8848 579.045 67.0859 569.279 79.4883C559.709 91.5977 554.924 106.979 554.924 125.631ZM877.189 182.613C877.482 192.184 876.359 199.312 873.82 204H840.568V253.365C838.811 254.928 836.809 256.246 834.562 257.32C829.387 259.762 823.137 261.178 815.812 261.568V204H729.973C725.871 198.727 723.576 193.355 723.088 187.887C737.639 173.629 753.898 151.852 771.867 122.555C790.715 90.3281 805.559 62.4961 816.398 39.0586C826.066 43.1602 834.807 48.7754 842.619 55.9043C839.494 61.373 835.539 67.8672 830.754 75.3867C816.301 97.2617 805.363 113.375 797.941 123.727C772.844 157.809 755.656 179.732 746.379 189.498L815.812 187.447V129.146C820.793 125.729 829.045 122.359 840.568 119.039V186.861C854.533 185.982 866.74 184.566 877.189 182.613Z" fill="#01FFF0"/>
<path d="M502.775 182.613L503.775 182.583L503.739 181.416L502.592 181.63L502.775 182.613ZM499.406 204V205H500.002L500.286 204.476L499.406 204ZM466.154 204V203H465.154V204H466.154ZM466.154 253.365L466.819 254.113L467.154 253.814V253.365H466.154ZM460.148 257.32L460.575 258.225L460.58 258.222L460.148 257.32ZM441.398 261.568H440.398V262.623L441.452 262.567L441.398 261.568ZM441.398 204H442.398V203H441.398V204ZM355.559 204L354.769 204.614L355.07 205H355.559V204ZM348.674 187.887L347.974 187.172L347.636 187.504L347.678 187.976L348.674 187.887ZM397.453 122.555L398.306 123.078L398.311 123.069L398.316 123.06L397.453 122.555ZM441.984 39.0586L442.375 38.138L441.483 37.7598L441.077 38.6388L441.984 39.0586ZM468.205 55.9043L469.073 56.4004L469.471 55.7053L468.879 55.1656L468.205 55.9043ZM456.34 75.3867L457.174 75.938L457.179 75.9308L457.184 75.9236L456.34 75.3867ZM423.527 123.727L424.333 124.32L424.34 124.309L423.527 123.727ZM371.965 189.498L371.24 188.809L369.568 190.569L371.994 190.498L371.965 189.498ZM441.398 187.447L441.428 188.447L442.398 188.418V187.447H441.398ZM441.398 129.146L440.833 128.322L440.398 128.62V129.146H441.398ZM466.154 119.039H467.154V117.71L465.877 118.078L466.154 119.039ZM466.154 186.861H465.154V187.926L466.217 187.859L466.154 186.861ZM501.776 182.644C502.067 192.158 500.939 199.071 498.527 203.524L500.286 204.476C502.952 199.554 504.07 192.209 503.775 182.583L501.776 182.644ZM499.406 203H466.154V205H499.406V203ZM465.154 204V253.365H467.154V204H465.154ZM465.49 252.618C463.806 254.115 461.884 255.382 459.717 256.418L460.58 258.222C462.906 257.11 464.987 255.741 466.819 254.113L465.49 252.618ZM459.722 256.416C454.691 258.789 448.575 260.184 441.345 260.57L441.452 262.567C448.87 262.171 455.254 260.735 460.575 258.225L459.722 256.416ZM442.398 261.568V204H440.398V261.568H442.398ZM441.398 203H355.559V205H441.398V203ZM356.348 203.386C352.339 198.231 350.138 193.037 349.67 187.798L347.678 187.976C348.187 193.673 350.576 199.222 354.769 204.614L356.348 203.386ZM349.374 188.601C364.009 174.26 380.319 152.404 398.306 123.078L396.601 122.032C378.65 151.3 362.44 172.998 347.974 187.172L349.374 188.601ZM398.316 123.06C417.174 90.8163 432.034 62.9546 442.892 39.4784L441.077 38.6388C430.255 62.0376 415.428 89.8399 396.59 122.05L398.316 123.06ZM441.594 39.9792C451.157 44.0363 459.801 49.5898 467.531 56.643L468.879 55.1656C460.984 47.961 452.148 42.2841 442.375 38.138L441.594 39.9792ZM467.337 55.4082C464.222 60.8588 460.276 67.3387 455.496 74.8498L457.184 75.9236C461.974 68.3957 465.938 61.8873 469.073 56.4004L467.337 55.4082ZM455.506 74.8355C441.054 96.7085 430.125 112.809 422.715 123.144L424.34 124.309C431.774 113.941 442.72 97.815 457.174 75.938L455.506 74.8355ZM422.722 123.134C397.617 157.226 380.466 179.097 371.24 188.809L372.69 190.187C382.018 180.368 399.242 158.391 424.333 124.32L422.722 123.134ZM371.994 190.498L441.428 188.447L441.369 186.448L371.935 188.498L371.994 190.498ZM442.398 187.447V129.146H440.398V187.447H442.398ZM441.964 129.971C446.807 126.648 454.93 123.314 466.431 120L465.877 118.078C454.332 121.405 445.951 124.809 440.833 128.322L441.964 129.971ZM465.154 119.039V186.861H467.154V119.039H465.154ZM466.217 187.859C480.211 186.979 492.46 185.559 502.959 183.596L502.592 181.63C492.193 183.574 480.028 184.986 466.091 185.863L466.217 187.859ZM537.346 93.5508L536.415 93.184L536.412 93.1918L537.346 93.5508ZM553.898 67.1836L553.18 66.4877L553.172 66.4958L553.898 67.1836ZM669.035 67.1836L669.77 66.5053L669.767 66.5019L669.035 67.1836ZM668.156 184.371L667.42 183.694L667.417 183.697L668.156 184.371ZM552.727 184.811L553.466 184.137L553.465 184.137L552.727 184.811ZM571.184 171.48L570.423 172.13L570.424 172.131L571.184 171.48ZM652.775 172.066L653.576 172.665L653.576 172.665L652.775 172.066ZM650.432 79.4883L649.685 80.153L649.687 80.1553L650.432 79.4883ZM569.279 79.4883L570.064 80.1083L570.065 80.1069L569.279 79.4883ZM532.486 126.07C532.486 114.662 534.419 103.945 538.279 93.9098L536.412 93.1918C532.459 103.469 530.486 114.431 530.486 126.07H532.486ZM538.276 93.9175C542.236 83.8722 547.687 75.1941 554.624 67.8713L553.172 66.4958C546.047 74.0168 540.463 82.9168 536.415 93.184L538.276 93.9175ZM554.617 67.8795C569.654 52.3596 588.386 44.5996 610.881 44.5996V42.5996C587.868 42.5996 568.611 50.5623 553.18 66.4877L554.617 67.8795ZM610.881 44.5996C634.762 44.5996 653.868 52.3716 668.303 67.8653L669.767 66.5019C654.905 50.5503 635.242 42.5996 610.881 42.5996V44.5996ZM668.3 67.8619C682.163 82.8794 689.129 102.446 689.129 126.656H691.129C691.129 102.038 684.033 81.9566 669.77 66.5053L668.3 67.8619ZM689.129 126.656C689.129 148.976 681.891 167.969 667.42 183.694L668.892 185.048C683.718 168.937 691.129 149.454 691.129 126.656H689.129ZM667.417 183.697C652.476 200.085 633.655 208.273 610.881 208.273V210.273C634.201 210.273 653.564 201.86 668.895 185.045L667.417 183.697ZM610.881 208.273C587.21 208.273 568.103 200.219 553.466 184.137L551.987 185.484C567.038 202.019 586.7 210.273 610.881 210.273V208.273ZM553.465 184.137C539.495 168.817 532.486 149.487 532.486 126.07H530.486C530.486 149.919 537.638 169.75 551.988 185.484L553.465 184.137ZM553.924 125.631C553.924 134.626 555.357 143.091 558.232 151.02L560.112 150.339C557.322 142.643 555.924 134.409 555.924 125.631H553.924ZM558.232 151.02C561.103 158.941 565.166 165.98 570.423 172.13L571.944 170.831C566.849 164.871 562.905 158.043 560.112 150.339L558.232 151.02ZM570.424 172.131C582.224 185.914 596.802 192.842 614.104 192.842V190.842C597.42 190.842 583.386 184.195 571.943 170.83L570.424 172.131ZM614.104 192.842C630.349 192.842 643.532 186.091 653.576 172.665L651.975 171.467C642.293 184.409 629.694 190.842 614.104 190.842V192.842ZM653.576 172.665C663.002 160.064 667.691 144.709 667.691 126.656H665.691C665.691 144.346 661.103 159.264 651.975 171.467L653.576 172.665ZM667.691 126.656C667.691 107.123 662.211 91.1477 651.177 78.8213L649.687 80.1553C660.332 92.0476 665.691 107.517 665.691 126.656H667.691ZM651.179 78.8235C639.944 66.1968 625.458 59.8848 607.805 59.8848V61.8848C624.917 61.8848 638.849 67.9751 649.685 80.153L651.179 78.8235ZM607.805 59.8848C591.583 59.8848 578.451 66.2241 568.494 78.8696L570.065 80.1069C579.639 67.9477 592.19 61.8848 607.805 61.8848V59.8848ZM568.495 78.8682C558.758 91.1888 553.924 106.802 553.924 125.631H555.924C555.924 107.155 560.66 92.0066 570.064 80.1083L568.495 78.8682ZM877.189 182.613L878.189 182.583L878.153 181.416L877.006 181.63L877.189 182.613ZM873.82 204V205H874.416L874.7 204.476L873.82 204ZM840.568 204V203H839.568V204H840.568ZM840.568 253.365L841.233 254.113L841.568 253.814V253.365H840.568ZM834.562 257.32L834.989 258.225L834.994 258.222L834.562 257.32ZM815.812 261.568H814.812V262.623L815.866 262.567L815.812 261.568ZM815.812 204H816.812V203H815.812V204ZM729.973 204L729.183 204.614L729.484 205H729.973V204ZM723.088 187.887L722.388 187.172L722.05 187.504L722.092 187.976L723.088 187.887ZM771.867 122.555L772.72 123.078L772.725 123.069L772.73 123.06L771.867 122.555ZM816.398 39.0586L816.789 38.138L815.897 37.7598L815.491 38.6388L816.398 39.0586ZM842.619 55.9043L843.487 56.4004L843.885 55.7053L843.293 55.1656L842.619 55.9043ZM830.754 75.3867L831.588 75.938L831.593 75.9308L831.598 75.9236L830.754 75.3867ZM797.941 123.727L798.747 124.32L798.754 124.309L797.941 123.727ZM746.379 189.498L745.654 188.809L743.982 190.569L746.408 190.498L746.379 189.498ZM815.812 187.447L815.842 188.447L816.812 188.418V187.447H815.812ZM815.812 129.146L815.247 128.322L814.812 128.62V129.146H815.812ZM840.568 119.039H841.568V117.71L840.291 118.078L840.568 119.039ZM840.568 186.861H839.568V187.926L840.631 187.859L840.568 186.861ZM876.19 182.644C876.481 192.158 875.353 199.071 872.941 203.524L874.7 204.476C877.366 199.554 878.484 192.209 878.189 182.583L876.19 182.644ZM873.82 203H840.568V205H873.82V203ZM839.568 204V253.365H841.568V204H839.568ZM839.904 252.618C838.22 254.115 836.298 255.382 834.131 256.418L834.994 258.222C837.32 257.11 839.401 255.741 841.233 254.113L839.904 252.618ZM834.136 256.416C829.105 258.789 822.989 260.184 815.759 260.57L815.866 262.567C823.284 262.171 829.668 260.735 834.989 258.225L834.136 256.416ZM816.812 261.568V204H814.812V261.568H816.812ZM815.812 203H729.973V205H815.812V203ZM730.762 203.386C726.753 198.231 724.552 193.037 724.084 187.798L722.092 187.976C722.601 193.673 724.99 199.222 729.183 204.614L730.762 203.386ZM723.788 188.601C738.423 174.26 754.733 152.404 772.72 123.078L771.015 122.032C753.064 151.3 736.854 172.998 722.388 187.172L723.788 188.601ZM772.73 123.06C791.588 90.8163 806.448 62.9546 817.306 39.4784L815.491 38.6388C804.669 62.0376 789.842 89.8399 771.004 122.05L772.73 123.06ZM816.008 39.9792C825.571 44.0363 834.216 49.5898 841.945 56.643L843.293 55.1656C835.398 47.961 826.562 42.2841 816.789 38.138L816.008 39.9792ZM841.751 55.4082C838.636 60.8588 834.69 67.3387 829.91 74.8498L831.598 75.9236C836.388 68.3957 840.352 61.8873 843.487 56.4004L841.751 55.4082ZM829.92 74.8355C815.468 96.7085 804.539 112.809 797.129 123.144L798.754 124.309C806.188 113.941 817.134 97.815 831.588 75.938L829.92 74.8355ZM797.136 123.134C772.031 157.226 754.88 179.097 745.654 188.809L747.104 190.187C756.432 180.368 773.657 158.391 798.747 124.32L797.136 123.134ZM746.408 190.498L815.842 188.447L815.783 186.448L746.349 188.498L746.408 190.498ZM816.812 187.447V129.146H814.812V187.447H816.812ZM816.378 129.971C821.221 126.648 829.344 123.314 840.845 120L840.291 118.078C828.746 121.405 820.365 124.809 815.247 128.322L816.378 129.971ZM839.568 119.039V186.861H841.568V119.039H839.568ZM840.631 187.859C854.625 186.979 866.874 185.559 877.373 183.596L877.006 181.63C866.607 183.574 854.442 184.986 840.506 185.863L840.631 187.859Z" fill="#01FFF0" mask="url(#path-1-outside-1_64_3714)"/>
<circle cx="589.516" cy="130" r="9.5" fill="#01FFF0" stroke="#01FFF0"/>
<circle cx="637.516" cy="130" r="9.5" fill="#01FFF0" stroke="#01FFF0"/>
<mask id="path-5-inside-2_64_3714" fill="white">
<path fill-rule="evenodd" clip-rule="evenodd" d="M635.586 262.094L635.586 236.574C635.586 233.352 632.975 230.74 629.753 230.74C626.531 230.74 623.92 233.352 623.92 236.574L623.92 262.094L603.504 262.094L603.504 236.574C603.504 233.352 600.893 230.74 597.671 230.74C594.449 230.74 591.838 233.352 591.838 236.574L591.838 262.094L580.169 262.094C576.948 262.094 574.336 264.705 574.336 267.927C574.336 271.148 576.948 273.76 580.169 273.76L583.817 273.76L583.817 305.842C583.817 322.352 597.201 335.737 613.711 335.737C630.222 335.737 643.606 322.352 643.606 305.842L643.606 273.76L647.979 273.76C651.201 273.76 653.813 271.148 653.813 267.927C653.813 264.705 651.201 262.094 647.979 262.094L635.586 262.094Z"/>
</mask>
<path fill-rule="evenodd" clip-rule="evenodd" d="M635.586 262.094L635.586 236.574C635.586 233.352 632.975 230.74 629.753 230.74C626.531 230.74 623.92 233.352 623.92 236.574L623.92 262.094L603.504 262.094L603.504 236.574C603.504 233.352 600.893 230.74 597.671 230.74C594.449 230.74 591.838 233.352 591.838 236.574L591.838 262.094L580.169 262.094C576.948 262.094 574.336 264.705 574.336 267.927C574.336 271.148 576.948 273.76 580.169 273.76L583.817 273.76L583.817 305.842C583.817 322.352 597.201 335.737 613.711 335.737C630.222 335.737 643.606 322.352 643.606 305.842L643.606 273.76L647.979 273.76C651.201 273.76 653.813 271.148 653.813 267.927C653.813 264.705 651.201 262.094 647.979 262.094L635.586 262.094Z" fill="#01FFF0"/>
<path d="M635.586 262.094L634.586 262.094L634.586 263.094L635.586 263.094L635.586 262.094ZM635.586 236.574L634.586 236.574L635.586 236.574ZM623.92 236.574L622.92 236.574L623.92 236.574ZM623.92 262.094L623.92 263.094L624.92 263.094L624.92 262.094L623.92 262.094ZM603.504 262.094L602.504 262.094L602.504 263.094L603.504 263.094L603.504 262.094ZM603.504 236.574L604.504 236.574L603.504 236.574ZM591.838 236.574L592.838 236.574L591.838 236.574ZM591.838 262.094L591.838 263.094L592.838 263.094L592.838 262.094L591.838 262.094ZM583.817 273.76L584.817 273.76L584.817 272.76L583.817 272.76L583.817 273.76ZM583.817 305.842L584.817 305.842L583.817 305.842ZM613.711 335.737L613.711 336.737L613.711 335.737ZM643.606 305.842L642.606 305.842L643.606 305.842ZM643.606 273.76L643.606 272.76L642.606 272.76L642.606 273.76L643.606 273.76ZM647.979 273.76L647.979 272.76L647.979 273.76ZM653.813 267.927L652.813 267.927L653.813 267.927ZM636.586 262.094L636.586 236.574L634.586 236.574L634.586 262.094L636.586 262.094ZM636.586 236.574C636.586 232.8 633.527 229.74 629.753 229.74L629.753 231.74C632.422 231.74 634.586 233.904 634.586 236.574L636.586 236.574ZM629.753 229.74C625.979 229.74 622.92 232.8 622.92 236.574L624.92 236.574C624.92 233.904 627.084 231.74 629.753 231.74L629.753 229.74ZM622.92 236.574L622.92 262.094L624.92 262.094L624.92 236.574L622.92 236.574ZM623.92 261.094L603.504 261.094L603.504 263.094L623.92 263.094L623.92 261.094ZM604.504 262.094L604.504 236.574L602.504 236.574L602.504 262.094L604.504 262.094ZM604.504 236.574C604.504 232.8 601.445 229.74 597.671 229.74L597.671 231.74C600.34 231.74 602.504 233.904 602.504 236.574L604.504 236.574ZM597.671 229.74C593.897 229.74 590.838 232.8 590.838 236.574L592.838 236.574C592.838 233.904 595.002 231.74 597.671 231.74L597.671 229.74ZM590.838 236.574L590.838 262.094L592.838 262.094L592.838 236.574L590.838 236.574ZM580.169 263.094L591.838 263.094L591.838 261.094L580.169 261.094L580.169 263.094ZM575.336 267.927C575.336 265.258 577.5 263.094 580.169 263.094L580.169 261.094C576.395 261.094 573.336 264.153 573.336 267.927L575.336 267.927ZM580.169 272.76C577.5 272.76 575.336 270.596 575.336 267.927L573.336 267.927C573.336 271.701 576.395 274.76 580.169 274.76L580.169 272.76ZM583.817 272.76L580.169 272.76L580.169 274.76L583.817 274.76L583.817 272.76ZM582.817 273.76L582.817 305.842L584.817 305.842L584.817 273.76L582.817 273.76ZM582.817 305.842C582.817 322.905 596.649 336.737 613.711 336.737L613.711 334.737C597.753 334.737 584.817 321.8 584.817 305.842L582.817 305.842ZM613.711 336.737C630.774 336.737 644.606 322.905 644.606 305.842L642.606 305.842C642.606 321.8 629.67 334.737 613.711 334.737L613.711 336.737ZM644.606 305.842L644.606 273.76L642.606 273.76L642.606 305.842L644.606 305.842ZM647.979 272.76L643.606 272.76L643.606 274.76L647.979 274.76L647.979 272.76ZM652.813 267.927C652.813 270.596 650.649 272.76 647.979 272.76L647.979 274.76C651.753 274.76 654.813 271.701 654.813 267.927L652.813 267.927ZM647.979 263.094C650.649 263.094 652.813 265.258 652.813 267.927L654.813 267.927C654.813 264.153 651.753 261.094 647.979 261.094L647.979 263.094ZM635.586 263.094L647.979 263.094L647.979 261.094L635.586 261.094L635.586 263.094Z" fill="#01FFF0" mask="url(#path-5-inside-2_64_3714)"/>
<path d="M614.19 318.885C614.19 358.661 597.693 372.981 548.194 376.087C302.306 391.516 292.098 65.1587 99.2405 188.45C-34.9928 274.264 -17.6629 505.511 187.516 593C332.096 654.65 879.841 763.031 1031.02 494.5C1098.52 374.591 1076.15 126.825 1256.02 42.0001C1435.88 -42.8248 1604.52 53.0002 1574.05 264.039" stroke="#01FFF0" stroke-width="14" stroke-linecap="round"/>
</g>
<defs>
<clipPath id="clip0_64_3714">
<rect width="1588" height="678" fill="white"/>
</clipPath>
</defs>
</svg>
